HIERARCHY
ROOT Hips
{
 OFFSET 0.000000 0.000000 0.000000
 CHANNELS 6 Xposition Yposition Zposition Yrotation Xrotation Zrotation
 JOINT Chest
 {
  OFFSET 0.000000 9.857222 0.000240
  CHANNELS 3 Yrotation Xrotation Zrotation
  JOINT Chest2
  {
   OFFSET 0.000000 10.876940 -0.000436
   CHANNELS 3 Yrotation Xrotation Zrotation
   JOINT Chest3
   {
    OFFSET 0.000000 9.827798 0.000000
    CHANNELS 3 Yrotation Xrotation Zrotation
    JOINT Chest4
    {
     OFFSET 0.000000 9.827798 0.000000
     CHANNELS 3 Yrotation Xrotation Zrotation
     JOINT Neck
     {
      OFFSET 0.000000 13.831992 0.000000
      CHANNELS 3 Yrotation Xrotation Zrotation
      JOINT Head
      {
       OFFSET 0.000000 9.147643 -0.001036
       CHANNELS 3 Yrotation Xrotation Zrotation
       End Site
       {
        OFFSET 0.000000 17.515799 -0.000541
       }
      }
     }
     JOINT RightCollar
     {
      OFFSET -3.001579 7.717577 0.000000
      CHANNELS 3 Yrotation Xrotation Zrotation
      JOINT RightShoulder
      {
       OFFSET -14.002642 0.000000 0.000000
       CHANNELS 3 Yrotation Xrotation Zrotation
       JOINT RightElbow
       {
        OFFSET -30.053852 0.000000 0.000000
        CHANNELS 3 Yrotation Xrotation Zrotation
        JOINT RightWrist
        {
         OFFSET -24.564923 0.000000 -0.000000
         CHANNELS 3 Yrotation Xrotation Zrotation
         End Site
         {
          OFFSET -18.334355 0.000000 0.000000
         }
        }
       }
      }
     }
     JOINT LeftCollar
     {
      OFFSET 3.001579 7.717577 0.000000
      CHANNELS 3 Yrotation Xrotation Zrotation
      JOINT LeftShoulder
      {
       OFFSET 14.002642 0.000000 0.000000
       CHANNELS 3 Yrotation Xrotation Zrotation
       JOINT LeftElbow
       {
        OFFSET 30.053852 0.000000 0.000000
        CHANNELS 3 Yrotation Xrotation Zrotation
        JOINT LeftWrist
        {
         OFFSET 24.564923 0.000000 -0.000000
         CHANNELS 3 Yrotation Xrotation Zrotation
         End Site
         {
          OFFSET 18.334355 0.000000 0.000000
         }
        }
       }
      }
     }
    }
   }
  }
 }
 JOINT RightHip
 {
  OFFSET -8.003235 -0.001175 -0.000120
  CHANNELS 3 Yrotation Xrotation Zrotation
  JOINT RightKnee
  {
   OFFSET 0.000000 -41.759727 0.000113
   CHANNELS 3 Yrotation Xrotation Zrotation
   JOINT RightAnkle
   {
    OFFSET 0.000000 -40.728748 0.000159
    CHANNELS 3 Yrotation Xrotation Zrotation
    JOINT RightToe
    {
     OFFSET 0.000000 -6.515296 14.732841
     CHANNELS 3 Yrotation Xrotation Zrotation
     End Site
     {
      OFFSET 0.000000 -1.502839 6.412115
     }
    }
   }
  }
 }
 JOINT LeftHip
 {
  OFFSET 8.003235 -0.001175 -0.000120
  CHANNELS 3 Yrotation Xrotation Zrotation
  JOINT LeftKnee
  {
   OFFSET 0.000000 -41.759727 0.000113
   CHANNELS 3 Yrotation Xrotation Zrotation
   JOINT LeftAnkle
   {
    OFFSET 0.000000 -40.728748 0.000159
    CHANNELS 3 Yrotation Xrotation Zrotation
    JOINT LeftToe
    {
     OFFSET 0.000000 -6.515296 14.732841
     CHANNELS 3 Yrotation Xrotation Zrotation
     End Site
     {
      OFFSET 0.000000 -1.502839 6.412115
     }
    }
   }
  }
 }
}
MOTION
Frames: 5
Frame Time: 0.016667
7.173379 90.391602 14.056627 -31.663910 -14.586446 1.213734 0.251977 0.221813 0.685080 0.110833 0.096519 0.300885 0.110833 0.096519 0.300885 0.083077 0.072444 0.225646 2.503585 29.652134 -1.099248 4.639995 18.955497 -2.404608 5.142573 26.959092 -7.228755 63.010828 3.399003 -11.887585 113.468315 -30.843047 -9.620655 8.753245 -1.028612 -5.780855 -20.895195 34.921022 -15.493481 -33.350084 21.828009 25.716444 -147.830831 -7.215191 24.665905 2.275332 -0.994997 0.476720 -12.225287 12.468180 -7.161288 3.213943 7.704302 -1.107728 -0.262909 -5.733035 3.825286 -0.006332 -0.061962 0.012776 -24.157076 25.920018 -4.411316 30.865192 0.966197 -7.378476 4.442741 -9.547273 -2.385356 0.066852 0.024540 0.039960
7.137119 90.382832 14.069414 -31.545066 -14.434687 1.169729 0.432716 0.142181 0.584676 0.199555 0.067634 0.251720 0.199555 0.067634 0.251720 0.149639 0.050808 0.188768 2.476722 29.778707 -1.002653 4.572542 19.185108 -2.224291 5.196230 27.222274 -6.703603 61.895631 3.816082 -11.544744 112.209177 -32.037105 -5.416976 8.608001 -0.829162 -5.708855 -20.915843 34.815272 -15.033186 -34.532855 20.756143 25.440729 -148.193904 -6.230528 26.607707 1.991525 -1.094736 0.503077 -12.255113 12.354849 -7.091232 3.236343 7.719145 -1.098706 -0.272108 -5.770748 3.810206 -0.010790 -0.052724 0.010573 -24.211508 25.814746 -4.295253 30.938517 0.950143 -7.394484 4.373270 -9.522055 -2.411519 0.089516 0.022258 0.045651
7.103210 90.370790 14.071755 -31.424086 -14.341294 1.146471 0.602493 0.153781 0.407624 0.289612 0.085792 0.169817 0.289612 0.085792 0.169817 0.217185 0.064425 0.127322 2.500262 29.834003 -0.869738 4.589439 19.282803 -1.991094 4.772858 27.683506 -6.348555 61.189818 4.824881 -11.589179 111.927508 -32.961209 -2.090064 8.515788 -0.576159 -5.667544 -20.829651 34.695101 -14.337636 -35.915188 19.195252 25.340986 -148.284015 -6.232023 28.929698 1.708590 -1.172957 0.640533 -12.257747 12.279817 -7.042507 3.188207 7.762206 -1.091253 -0.262685 -5.835906 3.786280 -0.016754 -0.024990 0.011543 -24.327201 25.744410 -4.247446 30.999279 0.926168 -7.416381 4.392079 -9.513870 -2.440762 0.128919 0.043388 0.060699
7.071367 90.365100 14.084803 -31.367872 -14.349101 1.162245 0.734244 0.312885 0.183161 0.349648 0.155481 0.068362 0.349648 0.155481 0.068362 0.262218 0.116650 0.051183 2.597448 29.818812 -0.747720 4.740063 19.252706 -1.792739 4.528583 28.103693 -5.879092 60.540849 6.572652 -11.760432 112.454103 -33.171866 0.431971 8.393336 -0.342086 -5.493215 -20.628218 34.725880 -13.598964 -37.269602 17.096768 25.640263 -148.086066 -7.345350 31.393716 1.446995 -1.217272 0.756907 -12.185863 12.301357 -7.028338 3.113330 7.808502 -1.103833 -0.264439 -5.896309 3.773375 -0.019452 -0.003589 0.015599 -24.349538 25.761842 -4.262634 30.903029 0.903633 -7.396895 4.438258 -9.504384 -2.461998 0.114992 0.037098 0.053866
7.043105 90.364693 14.091181 -31.324715 -14.345759 1.194074 0.692087 0.474871 0.013302 0.340486 0.236235 -0.009934 0.340486 0.236235 -0.009934 0.255368 0.177171 -0.007582 2.755290 29.785159 -0.727206 5.016748 19.194841 -1.785819 4.828531 28.186082 -5.381422 59.752965 9.303857 -11.656145 113.871604 -32.166637 1.853692 8.255317 -0.155611 -5.099982 -20.132956 34.554365 -12.982542 -38.443731 15.548459 25.734600 -147.466339 -8.727319 33.438402 1.358039 -1.358724 1.071318 -12.120259 12.307402 -7.024600 3.054936 7.843906 -1.119654 -0.271669 -5.941287 3.758880 -0.022963 0.012374 0.019947 -24.401606 25.752536 -4.292958 30.856732 0.884779 -7.398495 4.471844 -9.469564 -2.472410 0.112200 0.014296 0.053732
